<svg width="21" height="20" viewBox="0 0 21 20" fill="none" xmlns="http://www.w3.org/2000/svg">
<path d="M4.58328 11.31L11.1904 17.7729C11.4601 18.0367 11.5895 18.3444 11.5788 18.6962C11.568 19.0479 11.4273 19.3556 11.1567 19.6194C10.887 19.8612 10.5724 19.9879 10.2128 19.9993C9.85326 20.0107 9.53863 19.8841 9.26895 19.6194L0.369543 10.9143C0.234703 10.7824 0.138968 10.6396 0.0823349 10.4857C0.0257023 10.3318 -0.00171488 10.1669 8.29787e-05 9.99107C0.00188084 9.81521 0.0301968 9.65034 0.0850315 9.49646C0.139866 9.34259 0.235153 9.1997 0.370892 9.06781L9.2703 0.362712C9.51751 0.120904 9.82674 0 10.198 0C10.5693 0 10.8893 0.120904 11.1581 0.362712C11.4277 0.626502 11.5626 0.939974 11.5626 1.30313C11.5626 1.66628 11.4277 1.97931 11.1581 2.24222L4.58328 8.67212H19.6516C20.0336 8.67212 20.3541 8.79874 20.613 9.05198C20.8719 9.30522 21.0009 9.61825 21 9.99107C20.9991 10.3639 20.8696 10.6774 20.6117 10.9315C20.3537 11.1856 20.0336 11.3118 19.6516 11.31H4.58328Z" fill="white"/>
</svg>
