<svg width="27" height="25" viewBox="0 0 27 25" fill="none" xmlns="http://www.w3.org/2000/svg">
<path d="M12.502 23.7903C12.502 23.4695 12.6294 23.1618 12.8563 22.9349C13.0831 22.7081 13.3908 22.5806 13.7116 22.5806H23.389C23.496 22.5806 23.5986 22.5382 23.6742 22.4625C23.7498 22.3869 23.7923 22.2844 23.7923 22.1774V2.82258C23.7923 2.71564 23.7498 2.61308 23.6742 2.53746C23.5986 2.46184 23.496 2.41935 23.389 2.41935H13.7116C13.3908 2.41935 13.0831 2.29191 12.8563 2.06505C12.6294 1.83819 12.502 1.5305 12.502 1.20968C12.502 0.888851 12.6294 0.581165 12.8563 0.354306C13.0831 0.127448 13.3908 0 13.7116 0H23.389C24.9471 0 26.2116 1.26452 26.2116 2.82258V22.1774C26.2116 22.926 25.9143 23.6439 25.3849 24.1733C24.8556 24.7026 24.1376 25 23.389 25H13.7116C13.3908 25 13.0831 24.8726 12.8563 24.6457C12.6294 24.4188 12.502 24.1111 12.502 23.7903Z" fill="white"/>
<path d="M19.537 14.2981C19.537 14.7258 19.3671 15.1361 19.0646 15.4386C18.7622 15.7411 18.3519 15.911 17.9241 15.911H10.0919C10.0542 16.4841 10.008 17.0572 9.95317 17.6303L9.90478 18.1223C9.88676 18.3077 9.82428 18.486 9.72265 18.6421C9.62102 18.7982 9.48323 18.9275 9.32097 19.019C9.15872 19.1105 8.97679 19.1615 8.79061 19.1677C8.60444 19.1739 8.41953 19.1351 8.25155 19.0545C5.30233 17.6428 2.63297 15.7089 0.372522 13.3465L0.324135 13.2965C0.116161 13.0801 0 12.7917 0 12.4916C0 12.1915 0.116161 11.9031 0.324135 11.6868L0.372522 11.6368C2.63297 9.27432 5.30233 7.34046 8.25155 5.92873C8.41953 5.84821 8.60444 5.80939 8.79061 5.81558C8.97679 5.82177 9.15872 5.87277 9.32097 5.96427C9.48323 6.05577 9.62102 6.18505 9.72265 6.34116C9.82428 6.49726 9.88676 6.67558 9.90478 6.86098L9.95317 7.35292C10.008 7.92496 10.0542 8.49808 10.0919 9.07227H17.9241C18.3519 9.07227 18.7622 9.2422 19.0646 9.54468C19.3671 9.84716 19.537 10.2574 19.537 10.6852V14.2981Z" fill="white"/>
</svg>
