<svg width="32" height="40" viewBox="0 0 32 40" fill="none" xmlns="http://www.w3.org/2000/svg">
<path d="M17.9971 37.5C17.9266 37.5901 17.8509 37.6802 17.7646 37.7666C17.3248 38.2072 16.8407 38.4387 16.2578 38.4893L16.002 38.5H16C15.3006 38.5 14.7397 38.269 14.2363 37.7656C14.1502 37.6795 14.0743 37.5899 14.0039 37.5H17.9971ZM16.002 1.5C16.4376 1.4993 16.7636 1.63471 17.0654 1.93652C17.3295 2.20056 17.4652 2.48181 17.4941 2.83789L17.5 2.99512V5.57129L18.6357 5.85547C20.9797 6.44146 22.8561 7.66309 24.3145 9.54492C25.7737 11.428 26.5 13.5615 26.5 16V31.5H30.5V32.5H1.5V31.5H5.5V16C5.5 13.5599 6.22659 11.4264 7.68555 9.54492C9.14384 7.66441 11.02 6.44278 13.3643 5.85547L14.5 5.57031V3C14.5 2.56054 14.6368 2.23557 14.9355 1.9375C15.2361 1.63775 15.5629 1.5008 16.002 1.5Z" stroke="#6FBAEE" stroke-width="3"/>
</svg>
