<svg width="24" height="23" viewBox="0 0 24 23" fill="none" xmlns="http://www.w3.org/2000/svg">
<path d="M12.0001 16.4934C11.8111 16.4934 11.6339 16.4641 11.4685 16.4055C11.3032 16.347 11.1496 16.2463 11.0079 16.1036L5.90539 11.0011C5.62191 10.7177 5.48585 10.3869 5.49718 10.009C5.50852 9.631 5.64459 9.30029 5.90539 9.01681C6.18886 8.73334 6.52572 8.58593 6.91597 8.57459C7.30622 8.56325 7.6426 8.69885 7.92513 8.98138L10.5827 11.6389V1.50477C10.5827 1.10319 10.7188 0.766798 10.9909 0.495609C11.263 0.224419 11.5994 0.0883521 12.0001 0.0874072C12.4007 0.0864623 12.7376 0.22253 13.0106 0.495609C13.2837 0.768688 13.4193 1.10508 13.4174 1.50477V11.6389L16.075 8.98138C16.3585 8.6979 16.6953 8.56184 17.0856 8.57318C17.4758 8.58452 17.8122 8.73239 18.0947 9.01681C18.3546 9.30029 18.4906 9.631 18.5029 10.009C18.5152 10.3869 18.3791 10.7177 18.0947 11.0011L12.9922 16.1036C12.8505 16.2454 12.6969 16.346 12.5316 16.4055C12.3662 16.4651 12.189 16.4944 12.0001 16.4934ZM3.49586 22.7653C2.71631 22.7653 2.04921 22.4879 1.49454 21.9333C0.939881 21.3786 0.662078 20.711 0.661133 19.9305V17.0958C0.661133 16.6942 0.7972 16.3578 1.06933 16.0866C1.34147 15.8154 1.67786 15.6794 2.0785 15.6784C2.47914 15.6775 2.816 15.8136 3.08908 16.0866C3.36216 16.3597 3.49775 16.6961 3.49586 17.0958V19.9305H20.5043V17.0958C20.5043 16.6942 20.6403 16.3578 20.9125 16.0866C21.1846 15.8154 21.521 15.6794 21.9216 15.6784C22.3223 15.6775 22.6591 15.8136 22.9322 16.0866C23.2053 16.3597 23.3409 16.6961 23.339 17.0958V19.9305C23.339 20.7101 23.0617 21.3777 22.507 21.9333C21.9523 22.4889 21.2847 22.7662 20.5043 22.7653H3.49586Z" fill="#6FBAEE"/>
</svg>
